<svg width="980" height="360" viewBox="0 0 980 360" fill="none" xmlns="http://www.w3.org/2000/svg">
  <defs>
    <linearGradient id="veltrix-v" x1="396" y1="88" x2="607" y2="291" gradientUnits="userSpaceOnUse">
      <stop offset="0" stop-color="#6366F1"/>
      <stop offset="0.52" stop-color="#2563EB"/>
      <stop offset="1" stop-color="#06B6D4"/>
    </linearGradient>
    <linearGradient id="veltrix-wing" x1="40" y1="90" x2="940" y2="235" gradientUnits="userSpaceOnUse">
      <stop stop-color="#8F95A1"/>
      <stop offset="1" stop-color="#5F6672"/>
    </linearGradient>
    <filter id="veltrix-shadow" x="10" y="70" width="960" height="250" filterUnits="userSpaceOnUse" color-interpolation-filters="sRGB">
      <feDropShadow dx="0" dy="14" stdDeviation="12" flood-color="#0F172A" flood-opacity="0.14"/>
    </filter>
  </defs>
  <g filter="url(#veltrix-shadow)">
    <path d="M40 90 304 130 280 164 92 146 40 90Z" fill="url(#veltrix-wing)"/>
    <path d="M106 168 296 182 314 214 154 212 106 168Z" fill="url(#veltrix-wing)"/>
    <path d="M165 230 328 230 342 257 220 257 165 230Z" fill="url(#veltrix-wing)"/>
    <path d="M252 278 350 254 362 280 304 302 252 278Z" fill="url(#veltrix-wing)"/>
    <path d="M940 90 676 130 700 164 888 146 940 90Z" fill="url(#veltrix-wing)"/>
    <path d="M874 168 684 182 666 214 826 212 874 168Z" fill="url(#veltrix-wing)"/>
    <path d="M815 230 652 230 638 257 760 257 815 230Z" fill="url(#veltrix-wing)"/>
    <path d="M728 278 630 254 618 280 676 302 728 278Z" fill="url(#veltrix-wing)"/>
    <path d="M372 88C394 88 410 94 424 111L491 208C502 225 499 237 481 249C508 247 530 233 543 212L610 111C624 94 640 88 662 88H711L580 275C560 304 526 304 506 275L323 88H372Z" fill="url(#veltrix-v)"/>
  </g>
</svg>
